# xmcd
#
# Track frame offsets:
#	150
#	24942
#	41929
#	64048
#	81720
#	98269
#	113822
#	135218
#	150573
#	165788
#	187364
#	201566
#	224471
#
# Disc length: 3208 seconds
#
# Revision: 1
# Processed by: cddbd v1.5.2PL0 Copyright (c) Steve Scherf et al.
# Submitted via: audiograbber 1.83.01
#
DISCID=af0c860d
DTITLE=Emmylou Harris - Hard Bargain
DYEAR=2011
DGENRE=
TTITLE0=The Road
TTITLE1=Home Sweet Home
TTITLE2=My Name Is Emmett Till
TTITLE3=Goodnight Old World
TTITLE4=New Orleans
TTITLE5=Big Black Dog
TTITLE6=Lonely Girl
TTITLE7=Hard Bargain
TTITLE8=Six White Cadillacs
TTITLE9=The Ship On His Arm
TTITLE10=Darlin' Kate
TTITLE11=Nobody
TTITLE12=Cross Yourself
EXTD=
EXTT0=
EXTT1=
EXTT2=
EXTT3=
EXTT4=
EXTT5=
EXTT6=
EXTT7=
EXTT8=
EXTT9=
EXTT10=
EXTT11=
EXTT12=
PLAYORDER=
